<svg xmlns="http://www.w3.org/2000/svg" viewBox="0 0 1240 760" width="1240" role="img" aria-label="From scratch: 9 projects, 8 languages">
<style>
  .bg{fill:#fcfcfb} .t1{fill:#0b0b0b} .t2{fill:#52514e} .mu{fill:#898781} .grid{stroke:#e1e0d9} .base{stroke:#c3c2b7}
  .s1{fill:#2a78d6} .s2{fill:#eb6834} .s3{fill:#1baf7a} .o{fill:#eb6834} .l1{stroke:#2a78d6} .l2{stroke:#eb6834} .a1{fill:#2a78d6;fill-opacity:.12} .a2{fill:#eb6834;fill-opacity:.16}
  @media (prefers-color-scheme: dark){
    .bg{fill:#1a1a19} .t1{fill:#ffffff} .t2{fill:#c3c2b7} .grid{stroke:#2c2c2a} .base{stroke:#383835}
    .s1{fill:#3987e5} .s2{fill:#d95926} .s3{fill:#199e70} .o{fill:#f08a5d} .l1{stroke:#3987e5} .l2{stroke:#d95926} .a1{fill:#3987e5} .a2{fill:#d95926}
  }
  text{font-family:-apple-system,BlinkMacSystemFont,"Segoe UI",Helvetica,Arial,sans-serif}
</style>
<style>.hd{font-size:30px;font-weight:700;letter-spacing:-.4px} .big{font-size:21px;font-weight:700} .dash{stroke-dasharray:5 5} .ring{fill:none;stroke-width:2}</style>
<rect class="bg" width="1240" height="760" rx="10"/>
<text class="t1 hd" x="40" y="58">From scratch: 9 projects, 8 languages</text>
<text class="t2" x="40" y="88" font-size="15">total tokens to build each project, clean Claude Code → tokenforge · median −66% · 9/9 tasks cheaper</text>
<line class="grid" x1="96" y1="557.6" x2="1130" y2="557.6" stroke-width="1"/><text class="mu" x="82" y="562.6" font-size="14" text-anchor="end">50k</text>
<line class="grid" x1="96" y1="480.5" x2="1130" y2="480.5" stroke-width="1"/><text class="mu" x="82" y="485.5" font-size="14" text-anchor="end">100k</text>
<line class="grid" x1="96" y1="403.4" x2="1130" y2="403.4" stroke-width="1"/><text class="mu" x="82" y="408.4" font-size="14" text-anchor="end">200k</text>
<line class="grid" x1="96" y1="301.6" x2="1130" y2="301.6" stroke-width="1"/><text class="mu" x="82" y="306.6" font-size="14" text-anchor="end">500k</text>
<line class="grid" x1="96" y1="224.5" x2="1130" y2="224.5" stroke-width="1"/><text class="mu" x="82" y="229.5" font-size="14" text-anchor="end">1M</text>
<text class="mu" x="22" y="370" font-size="13" transform="rotate(-90 22 370)" text-anchor="middle">total tokens (log scale)</text>
<circle class="s1" cx="118" cy="154" r="6"/><text class="t1" x="132" y="159" font-size="15">clean Claude Code</text>
<circle class="s2" cx="118" cy="180" r="6"/><text class="t1" x="132" y="185" font-size="15">tokenforge (default)</text>
<line class="l2 dash" x1="153.4" y1="380.9" x2="153.4" y2="499.6" stroke-width="1.6"/><line class="grid" x1="153.4" y1="594.0" x2="153.4" y2="600.0" stroke-width="1"/><circle class="s1" cx="153.4" cy="380.9" r="7"><title>Luau inventory (Roblox): clean Claude Code 245k</title></circle><text class="t1" x="153.4" y="616.0" font-size="14" font-weight="600" text-anchor="middle">Luau inventory (Roblox)</text><text class="mu" x="153.4" y="633.0" font-size="12.5" text-anchor="middle">245k → 84k</text><circle class="s2" cx="153.4" cy="499.6" r="7"><title>Luau inventory (Roblox): tokenforge 84k (66% fewer)</title></circle><circle class="ring l2" cx="153.4" cy="499.6" r="11"/><text class="big o" x="169.4" y="525.6">−66%</text>
<line class="l2 dash" x1="268.3" y1="377.2" x2="268.3" y2="533.2" stroke-width="1.6"/><line class="grid" x1="268.3" y1="594.0" x2="268.3" y2="646.0" stroke-width="1"/><circle class="s1" cx="268.3" cy="377.2" r="7"><title>Vite front page: clean Claude Code 253k</title></circle><text class="t1" x="268.3" y="662.0" font-size="14" font-weight="600" text-anchor="middle">Vite front page</text><text class="mu" x="268.3" y="679.0" font-size="12.5" text-anchor="middle">253k → 62k</text><circle class="s2" cx="268.3" cy="533.2" r="7"><title>Vite front page: tokenforge 62k (75% fewer)</title></circle><circle class="ring l2" cx="268.3" cy="533.2" r="11"/><text class="big o" x="284.3" y="559.2">−75%</text>
<line class="l2 dash" x1="383.2" y1="364.6" x2="383.2" y2="430.9" stroke-width="1.6"/><line class="grid" x1="383.2" y1="594.0" x2="383.2" y2="600.0" stroke-width="1"/><circle class="s1" cx="383.2" cy="364.6" r="7"><title>TypeScript library: clean Claude Code 284k</title></circle><text class="t1" x="383.2" y="616.0" font-size="14" font-weight="600" text-anchor="middle">TypeScript library</text><text class="mu" x="383.2" y="633.0" font-size="12.5" text-anchor="middle">284k → 156k</text><circle class="s2" cx="383.2" cy="430.9" r="7"><title>TypeScript library: tokenforge 156k (45% fewer)</title></circle><circle class="ring l2" cx="383.2" cy="430.9" r="11"/><text class="big o" x="399.2" y="456.9">−45%</text>
<line class="l2 dash" x1="498.1" y1="357.2" x2="498.1" y2="430.4" stroke-width="1.6"/><line class="grid" x1="498.1" y1="594.0" x2="498.1" y2="646.0" stroke-width="1"/><circle class="s1" cx="498.1" cy="357.2" r="7"><title>C++ key-value store: clean Claude Code 303k</title></circle><text class="t1" x="498.1" y="662.0" font-size="14" font-weight="600" text-anchor="middle">C++ key-value store</text><text class="mu" x="498.1" y="679.0" font-size="12.5" text-anchor="middle">303k → 157k</text><circle class="s2" cx="498.1" cy="430.4" r="7"><title>C++ key-value store: tokenforge 157k (48% fewer)</title></circle><circle class="ring l2" cx="498.1" cy="430.4" r="11"/><text class="big o" x="514.1" y="456.4">−48%</text>
<line class="l2 dash" x1="613.0" y1="330.4" x2="613.0" y2="408.8" stroke-width="1.6"/><line class="grid" x1="613.0" y1="594.0" x2="613.0" y2="600.0" stroke-width="1"/><circle class="s1" cx="613.0" cy="330.4" r="7"><title>Python CLI: clean Claude Code 386k</title></circle><text class="t1" x="613.0" y="616.0" font-size="14" font-weight="600" text-anchor="middle">Python CLI</text><text class="mu" x="613.0" y="633.0" font-size="12.5" text-anchor="middle">386k → 191k</text><circle class="s2" cx="613.0" cy="408.8" r="7"><title>Python CLI: tokenforge 191k (51% fewer)</title></circle><circle class="ring l2" cx="613.0" cy="408.8" r="11"/><text class="big o" x="629.0" y="434.8">−51%</text>
<line class="l2 dash" x1="727.9" y1="317.2" x2="727.9" y2="399.8" stroke-width="1.6"/><line class="grid" x1="727.9" y1="594.0" x2="727.9" y2="646.0" stroke-width="1"/><circle class="s1" cx="727.9" cy="317.2" r="7"><title>Node static site gen: clean Claude Code 434k</title></circle><text class="t1" x="727.9" y="662.0" font-size="14" font-weight="600" text-anchor="middle">Node static site gen</text><text class="mu" x="727.9" y="679.0" font-size="12.5" text-anchor="middle">434k → 207k</text><circle class="s2" cx="727.9" cy="399.8" r="7"><title>Node static site gen: tokenforge 207k (52% fewer)</title></circle><circle class="ring l2" cx="727.9" cy="399.8" r="11"/><text class="big o" x="743.9" y="425.8">−52%</text>
<line class="l2 dash" x1="842.8" y1="289.7" x2="842.8" y2="439.8" stroke-width="1.6"/><line class="grid" x1="842.8" y1="594.0" x2="842.8" y2="600.0" stroke-width="1"/><circle class="s1" cx="842.8" cy="289.7" r="7"><title>Go mock REST API: clean Claude Code 556k</title></circle><text class="t1" x="842.8" y="616.0" font-size="14" font-weight="600" text-anchor="middle">Go mock REST API</text><text class="mu" x="842.8" y="633.0" font-size="12.5" text-anchor="middle">556k → 144k</text><circle class="s2" cx="842.8" cy="439.8" r="7"><title>Go mock REST API: tokenforge 144k (74% fewer)</title></circle><circle class="ring l2" cx="842.8" cy="439.8" r="11"/><text class="big o" x="858.8" y="465.8">−74%</text>
<line class="l2 dash" x1="957.7" y1="249.0" x2="957.7" y2="378.1" stroke-width="1.6"/><line class="grid" x1="957.7" y1="594.0" x2="957.7" y2="646.0" stroke-width="1"/><circle class="s1" cx="957.7" cy="249.0" r="7"><title>Rust TUI (ratatui): clean Claude Code 802k</title></circle><text class="t1" x="957.7" y="662.0" font-size="14" font-weight="600" text-anchor="middle">Rust TUI (ratatui)</text><text class="mu" x="957.7" y="679.0" font-size="12.5" text-anchor="middle">802k → 251k</text><circle class="s2" cx="957.7" cy="378.1" r="7"><title>Rust TUI (ratatui): tokenforge 251k (69% fewer)</title></circle><circle class="ring l2" cx="957.7" cy="378.1" r="11"/><text class="big o" x="973.7" y="404.1">−69%</text>
<line class="l2 dash" x1="1072.6" y1="202.3" x2="1072.6" y2="346.1" stroke-width="1.6"/><line class="grid" x1="1072.6" y1="594.0" x2="1072.6" y2="600.0" stroke-width="1"/><circle class="s1" cx="1072.6" cy="202.3" r="7"><title>C# loans API: clean Claude Code 1.22M</title></circle><text class="t1" x="1072.6" y="616.0" font-size="14" font-weight="600" text-anchor="middle">C# loans API</text><text class="mu" x="1072.6" y="633.0" font-size="12.5" text-anchor="middle">1.22M → 335k</text><circle class="s2" cx="1072.6" cy="346.1" r="7"><title>C# loans API: tokenforge 335k (73% fewer)</title></circle><circle class="ring l2" cx="1072.6" cy="346.1" r="11"/><text class="big o" x="1088.6" y="372.1">−73%</text>
<text class="mu" x="40" y="734" font-size="13">Medians of 1–3 runs per side, Opus 5.5, quality from hidden tests; single runs vary about ±20%. Raw data: bench/reports/. Regenerate: python3 bench/scripts/charts.py</text>
</svg>